#!OML:ASF E:\Mandelcareful walks\Project 1\Capture day 1\Session 1\Subject1.ASF
:FULLY-SPECIFIED
:DEGREES
23
root -8.5186 1.56647 1.37824 145.274 82.2227 43.2761
lowerback -18.9525 -0.12383 -1.70818
upperback -0.525624 0.524845 -2.14527
thorax 10.0949 0.266686 -1.22322
lowerneck -16.4142 17.529 11.964
upperneck 19.5754 25.7236 -18.1313
head 13.4457 10.529 -3.74574
rclavicle 3.65764e-014 6.02318e-014
rhumerus 17.8062 -44.2775 -13.8989
rradius 124.221
rwrist -34.4904
rhand -18.479 -35.5854
rfingers 7.12502
rthumb 7.80805 -65.4212
lclavicle 3.65764e-014 6.02318e-014
lhumerus 38.9319 38.0374 31.7862
lradius 114.163
lwrist 31.5023
lhand -21.6338 -14.7301
lfingers 7.12502
lthumb 4.76236 15.1964
rfemur -15.0761 -11.9547 12.5936
rtibia 16.1178
rfoot -54.3082 -39.3422
rtoes 40.5816
lfemur -26.5696 24.4599 -17.2666
ltibia 29.4767
lfoot -20.8815 34.4192
ltoes 24.2835
24
root -8.51894 1.57109 1.37994 147.587 82.4225 45.5582
lowerback -18.9713 -0.0635162 -1.30884
upperback -0.545101 0.510188 -2.08854
thorax 10.0858 0.276744 -1.39272
lowerneck -16.3655 17.512 11.9163
upperneck 19.5592 25.6652 -17.9877
head 13.3833 10.5191 -3.70708
rclavicle -8.5875e-014 -8.15514e-014
rhumerus 17.6999 -44.2723 -13.8551
rradius 124.176
rwrist -34.453
rhand -18.5176 -35.5173
rfingers 7.12502
rthumb 7.77075 -65.3545
lclavicle -8.5875e-014 -8.15514e-014
lhumerus 39.0081 37.9933 31.7551
lradius 114.148
lwrist 31.5913
lhand -21.7256 -14.7219
lfingers 7.12502
lthumb 4.67369 15.2066
rfemur -15.1847 -11.8775 13.0265
rtibia 16.1793
rfoot -54.3806 -39.4704
rtoes 40.1321
lfemur -26.6359 24.3781 -16.8566
ltibia 29.4494
lfoot -20.9017 34.4718
ltoes 24.5659
25
root -8.5163 1.57505 1.38115 146.432 82.3369 44.2104
lowerback -19.1031 -0.120882 -1.51522
upperback -0.530157 0.487377 -2.11214
thorax 10.1748 0.257028 -1.30804
lowerneck -16.6576 17.5913 11.7704
upperneck 19.7542 25.7804 -17.8011
head 13.4819 10.5425 -3.57223
rclavicle 8.82604e-014 7.46436e-014
rhumerus 17.9208 -44.4196 -13.9625
rradius 124.126
rwrist -34.433
rhand -18.519 -35.5787
rfingers 7.12502
rthumb 7.76945 -65.416
lclavicle 8.82604e-014 7.46436e-014
lhumerus 38.9856 38.1429 31.7193
lradius 114.172
lwrist 31.7233
lhand -21.8004 -14.6591
lfingers 7.12502
lthumb 4.60153 15.271
rfemur -15.4606 -11.9051 12.8668
rtibia 16.2269
rfoot -54.2183 -39.6315
rtoes 40.2928
lfemur -26.8335 24.3251 -17.1374
ltibia 29.3991
lfoot -21.1776 34.4496
ltoes 24.8849
26
root -8.51068 1.57949 1.38205 144.342 82.0165 41.8285
lowerback -19.3418 -0.202866 -2.00817
upperback -0.622408 0.51125 -2.21024
thorax 10.2039 0.250744 -1.12784
lowerneck -16.5591 17.5659 11.8347
upperneck 19.7508 25.7813 -17.9506
head 13.501 10.5395 -3.64111
rclavicle -5.08889e-014 -1.07493e-013
rhumerus 17.8653 -44.4865 -13.7632
rradius 124.075
rwrist -34.5593
rhand -18.5234 -35.6497
rfingers 7.12502
rthumb 7.76519 -65.4871
lclavicle -5.08889e-014 -1.07493e-013
lhumerus 38.9906 38.1072 31.7872
lradius 114.188
lwrist 31.6825
lhand -21.7313 -14.5858
lfingers 7.12502
lthumb 4.66828 15.3428
rfemur -15.8741 -12.0778 12.4238
rtibia 16.4026
rfoot -54.2005 -39.6113
rtoes 40.2077
lfemur -27.1156 24.2083 -17.7703
ltibia 29.2672
lfoot -21.3587 34.4169
ltoes 25.4199
27
root -8.50539 1.58807 1.38349 144.396 81.8289 41.7475
lowerback -19.4051 -0.238098 -2.19008
upperback -0.733603 0.511792 -2.23646
thorax 10.1145 0.245985 -1.0514
lowerneck -16.1859 17.4579 11.9402
upperneck 19.4869 25.6413 -18.1919
head 13.3586 10.5089 -3.80211
rclavicle -8.42847e-014 -9.52179e-014
rhumerus 17.5696 -44.4208 -13.498
rradius 124.124
rwrist -34.6257
rhand -18.5226 -35.632
rfingers 7.12502
rthumb 7.76595 -65.4694
lclavicle -8.42847e-014 -9.52179e-014
lhumerus 38.9734 37.972 31.845
lradius 114.196
lwrist 31.5752
lhand -21.6897 -14.6173
lfingers 7.12502
lthumb 4.70843 15.3104
rfemur -16.1572 -12.1745 12.2979
rtibia 16.6812
rfoot -54.4441 -39.4599
rtoes 40.0136
lfemur -27.2314 24.0213 -17.972
ltibia 29.0926
lfoot -21.0456 34.5205
ltoes 25.2906
28
root -8.49794 1.60113 1.38758 144.172 81.564 41.2516
lowerback -19.5086 -0.379611 -2.5422
upperback -0.798192 0.411918 -2.26196
thorax 10.0986 0.184857 -0.906086
lowerneck -16.1674 17.4951 12.0639
upperneck 19.3387 25.6663 -18.3131
head 13.3411 10.5275 -3.85375
rclavicle 3.26007e-014 6.94255e-014
rhumerus 17.6068 -44.4547 -13.6618
rradius 124.226
rwrist -34.5554
rhand -18.4531 -35.6145
rfingers 7.12502
rthumb 7.83306 -65.4494
lclavicle 3.26007e-014 6.94255e-014
lhumerus 38.9509 38.1055 31.7715
lradius 114.163
lwrist 31.4305
lhand -21.6924 -14.6194
lfingers 7.12502
lthumb 4.70582 15.3084
rfemur -16.5634 -12.22 12.0914
rtibia 16.9047
rfoot -54.6254 -39.4305
rtoes 40.468
lfemur -27.5537 23.8381 -18.366
ltibia 28.9497
lfoot -20.7951 34.6485
ltoes 24.9389
29
root -8.49798 1.59678 1.38618 142.061 81.6188 39.1873
lowerback -19.5041 -0.351015 -2.75356
upperback -0.782242 0.502327 -2.2984
thorax 10.1128 0.219107 -0.800661
lowerneck -16.074 17.5202 12.1711
upperneck 19.0516 25.6725 -18.5004
head 13.2597 10.5469 -3.93514
rclavicle 8.18993e-014 1.33633e-013
rhumerus 17.6622 -44.4463 -13.7222
rradius 124.231
rwrist -34.5592
rhand -18.4742 -35.6093
rfingers 7.12502
rthumb 7.81269 -65.445
lclavicle 8.18993e-014 1.33633e-013
lhumerus 38.8987 38.1608 31.6837
lradius 114.124
lwrist 31.3128
lhand -21.6654 -14.577
lfingers 7.12502
lthumb 4.73186 15.3502
rfemur -16.6067 -12.3359 11.8945
rtibia 17.0337
rfoot -54.0668 -39.3573
rtoes 40.6406
lfemur -27.3892 24.1081 -18.5518
ltibia 28.872
lfoot -20.932 34.5725
ltoes 25.3313
30
root -8.49865 1.59642 1.38755 141.51 81.7155 38.5843
lowerback -19.6081 -0.28318 -2.84083
upperback -0.820169 0.611457 -2.2458
thorax 10.1265 0.266147 -0.66275
lowerneck -15.8301 17.4582 12.2092
upperneck 18.7806 25.5747 -18.65
head 13.1199 10.5311 -4.03286
rclavicle 3.18055e-014 3.3048e-014
rhumerus 17.4689 -44.4706 -13.3594
rradius 124.212
rwrist -34.693
rhand -18.5466 -35.6869
rfingers 7.12502
rthumb 7.74282 -65.5251
lclavicle 3.18055e-014 3.3048e-014
lhumerus 38.922 38.0673 31.8546
lradius 114.117
lwrist 31.2227
lhand -21.5446 -14.5481
lfingers 7.12502
lthumb 4.84853 15.3764
rfemur -16.7151 -12.286 11.9178
rtibia 17.0992
rfoot -54.0213 -39.1142
rtoes 40.7914
lfemur -27.4448 24.3815 -18.6028
ltibia 28.8457
lfoot -20.9754 34.5027
ltoes 25.975
31
root -8.49807 1.59526 1.3896 141.641 81.8643 38.6077
lowerback -19.7483 -0.199185 -2.77222
upperback -0.84309 0.709787 -2.20426
thorax 10.1784 0.315067 -0.628787
lowerneck -15.7137 17.4474 12.3689
upperneck 18.6467 25.5354 -18.7769
head 13.0845 10.5305 -4.11517
rclavicle -1.51076e-014 -5.47155e-014
rhumerus 17.3121 -44.5672 -13.1003
rradius 124.223
rwrist -34.8023
rhand -18.4925 -35.8156
rfingers 7.12502
rthumb 7.79499 -65.6519
lclavicle -1.51076e-014 -5.47155e-014
lhumerus 39.031 37.9899 31.9944
lradius 114.128
lwrist 31.2278
lhand -21.533 -14.4155
lfingers 7.12502
lthumb 4.85973 15.5088
rfemur -16.8233 -12.2866 12.0766
rtibia 17.0276
rfoot -53.7827 -39.1673
rtoes 41.0075
lfemur -27.6121 24.6173 -18.5716
ltibia 28.8998
lfoot -21.1493 34.4589
ltoes 26.3635
32
root -8.49778 1.5925 1.38918 143.961 82.1758 40.9788
lowerback -19.6653 -0.0937953 -2.27639
upperback -0.898046 0.720051 -2.10772
thorax 10.0742 0.34077 -0.801781
lowerneck -15.5367 17.4523 12.5636
upperneck 18.5211 25.5135 -18.8888
head 13.0459 10.5437 -4.19696
rclavicle -5.56597e-014 -7.7526e-015
rhumerus 17.2649 -44.4763 -13.0418
rradius 124.212
rwrist -34.7602
rhand -18.4185 -35.8956
rfingers 7.12502
rthumb 7.86647 -65.7293
lclavicle -5.56597e-014 -7.7526e-015
lhumerus 39.0209 37.8604 31.9469
lradius 114.158
lwrist 31.3552
lhand -21.6897 -14.3056
lfingers 7.12502
lthumb 4.70842 15.622
rfemur -16.7149 -12.2518 12.5681
rtibia 16.9008
rfoot -53.4675 -39.5021
rtoes 40.89
lfemur -27.6227 24.7797 -18.0828
ltibia 28.9726
lfoot -21.0676 34.4392
ltoes 26.0921
33
root -8.4954 1.59023 1.38835 147.416 82.5757 44.5447
lowerback -19.501 -0.0161294 -1.67513
upperback -0.952309 0.65305 -1.88451
thorax 9.9247 0.329523 -0.917973
lowerneck -15.4089 17.4556 12.5728
upperneck 18.4492 25.5206 -18.9277
head 13.0022 10.5579 -4.2185
rclavicle 4.77083e-015 1.19768e-014
rhumerus 17.4581 -44.2968 -13.1023
rradius 124.184
rwrist -34.6819
rhand -18.4524 -35.9458
rfingers 7.12502
rthumb 7.83366 -65.7807
lclavicle 4.77083e-015 1.19768e-014
lhumerus 38.8128 37.8798 31.8927
lradius 114.183
lwrist 31.3818
lhand -21.7096 -14.316
lfingers 7.12502
lthumb 4.6892 15.6121
rfemur -16.5566 -12.0117 13.1974
rtibia 16.7891
rfoot -53.0731 -40.2411
rtoes 40.1702
lfemur -27.5592 25.0136 -17.3941
ltibia 28.9951
lfoot -20.4824 34.4786
ltoes 25.1683
